<svg xmlns="http://www.w3.org/2000/svg" width="14" height="14" viewBox="0 0 14 14" shape-rendering="crispEdges">
  <rect width="100%" height="100%" fill="#B9B9B9" x="0" y="0" />
  <rect x="7" y="2" width="1" height="1" fill="#0823f9" />
  <rect x="8" y="2" width="1" height="1" fill="#0823f9" />
  <rect x="6" y="3" width="1" height="1" fill="#0823f9" />
  <rect x="7" y="3" width="1" height="1" fill="#0823f9" />
  <rect x="8" y="3" width="1" height="1" fill="#0823f9" />
  <rect x="5" y="4" width="1" height="1" fill="#0823f9" />
  <rect x="6" y="4" width="1" height="1" fill="#0823f9" />
  <rect x="7" y="4" width="1" height="1" fill="#0823f9" />
  <rect x="8" y="4" width="1" height="1" fill="#0823f9" />
  <rect x="4" y="5" width="1" height="1" fill="#0823f9" />
  <rect x="5" y="5" width="1" height="1" fill="#0823f9" />
  <rect x="6" y="5" width="1" height="1" fill="#0823f9" />
  <rect x="7" y="5" width="1" height="1" fill="#0823f9" />
  <rect x="8" y="5" width="1" height="1" fill="#0823f9" />
  <rect x="6" y="6" width="1" height="1" fill="#0823f9" />
  <rect x="7" y="6" width="1" height="1" fill="#0823f9" />
  <rect x="8" y="6" width="1" height="1" fill="#0823f9" />
  <rect x="6" y="7" width="1" height="1" fill="#0823f9" />
  <rect x="7" y="7" width="1" height="1" fill="#0823f9" />
  <rect x="8" y="7" width="1" height="1" fill="#0823f9" />
  <rect x="6" y="8" width="1" height="1" fill="#0823f9" />
  <rect x="7" y="8" width="1" height="1" fill="#0823f9" />
  <rect x="8" y="8" width="1" height="1" fill="#0823f9" />
  <rect x="6" y="9" width="1" height="1" fill="#0823f9" />
  <rect x="7" y="9" width="1" height="1" fill="#0823f9" />
  <rect x="8" y="9" width="1" height="1" fill="#0823f9" />
  <rect x="4" y="10" width="1" height="1" fill="#0823f9" />
  <rect x="5" y="10" width="1" height="1" fill="#0823f9" />
  <rect x="6" y="10" width="1" height="1" fill="#0823f9" />
  <rect x="7" y="10" width="1" height="1" fill="#0823f9" />
  <rect x="8" y="10" width="1" height="1" fill="#0823f9" />
  <rect x="9" y="10" width="1" height="1" fill="#0823f9" />
  <rect x="10" y="10" width="1" height="1" fill="#0823f9" />
  <rect x="4" y="11" width="1" height="1" fill="#0823f9" />
  <rect x="5" y="11" width="1" height="1" fill="#0823f9" />
  <rect x="6" y="11" width="1" height="1" fill="#0823f9" />
  <rect x="7" y="11" width="1" height="1" fill="#0823f9" />
  <rect x="8" y="11" width="1" height="1" fill="#0823f9" />
  <rect x="9" y="11" width="1" height="1" fill="#0823f9" />
  <rect x="10" y="11" width="1" height="1" fill="#0823f9" />
</svg>